<svg width="952" height="940" viewBox="0 0 952 940" fill="none" xmlns="http://www.w3.org/2000/svg">
<path d="M278.71 556.826L277.453 558.87L267.049 552.46L268.308 550.417L257.905 544.006V544.007L256.646 546.05L246.242 539.641L247.501 537.598V537.597L237.097 531.188L235.838 533.232L230.637 530.027C228.354 528.62 226.29 526.949 224.478 525.068L226.207 523.403V523.402C222.793 519.859 220.346 515.51 219.102 510.774V510.775L216.781 511.385C216.115 508.851 215.766 506.215 215.766 503.532V496.955H218.167V483.8H215.766V470.646H218.167V457.493H215.766V444.339H218.167V431.184H215.766V418.031H218.167V404.877H215.766V391.722H218.167V378.568H215.766V365.415H218.167V352.26H215.766V339.106H218.167V325.953H215.766V312.798H218.167V299.644H215.766V293.067L215.771 292.555C215.813 289.997 216.171 287.485 216.819 285.068L219.137 285.69C220.429 280.87 222.967 276.459 226.498 272.898L224.793 271.208C226.667 269.318 228.797 267.651 231.152 266.261L236.806 262.924L238.025 264.991L249.333 258.317L248.115 256.252L259.422 249.578L260.641 251.644L271.95 244.97L270.731 242.905L282.04 236.231L283.258 238.297L294.567 231.625L293.347 229.558L304.656 222.884L305.875 224.951L317.183 218.277L315.964 216.212L327.272 209.538L328.491 211.604L339.799 204.931L338.581 202.865L349.889 196.192L351.108 198.257L362.416 191.585L361.197 189.518L372.505 182.845L373.724 184.911L385.033 178.238L383.814 176.172L395.122 169.499L396.341 171.565L407.649 164.891L406.43 162.825L417.739 156.152L418.958 158.217L430.265 151.545L429.046 149.478L440.355 142.805L441.574 144.872L452.882 138.198L451.664 136.132L462.971 129.459L464.19 131.525L475.499 124.851L474.28 122.786L479.934 119.449C482.392 117.998 484.935 116.92 487.51 116.188L488.167 118.497C493.258 117.05 498.458 117.083 503.292 118.323L503.292 118.32L503.889 115.995C509.257 117.372 514.206 120.129 518.182 123.958L516.517 125.686L516.515 125.687C520.122 129.161 522.858 133.584 524.235 138.686L526.553 138.06C527.252 140.649 527.626 143.393 527.626 146.255V152.295H525.226V164.375H527.626V176.454H525.226V188.534H527.626V200.613H525.226V212.693H527.626V224.772H525.226V236.852H527.626V248.932H525.226V261.011H527.626V273.091H525.226V285.171H527.626V297.251H525.226V309.33H527.626V321.41H525.226V333.489H527.626V335.302L529.869 333.965L531.098 336.026L542.842 329.021L541.613 326.961L553.357 319.956L554.586 322.016L566.331 315.011L565.101 312.951L576.845 305.946L578.075 308.006L589.819 301.002L588.589 298.941L600.333 291.936L601.562 293.997L613.306 286.992L612.077 284.931L623.821 277.926L625.05 279.987L636.794 272.982L635.565 270.922L647.309 263.917L648.539 265.977L660.283 258.972L659.053 256.912L670.797 249.906L672.027 251.967L683.77 244.963L682.542 242.901L688.413 239.399C690.87 237.933 693.415 236.841 695.993 236.097L696.658 238.403C701.756 236.932 706.967 236.948 711.815 238.176L711.816 238.173L712.406 235.846C717.79 237.211 722.757 239.963 726.749 243.794L725.087 245.525L725.085 245.526C728.706 249 731.454 253.431 732.837 258.544L735.156 257.917C735.857 260.511 736.233 263.26 736.233 266.13V272.533H733.833V285.339H736.233V298.145H733.833V310.951H736.233V323.757H733.833V336.563H736.233V349.369H733.833V362.175H736.233V374.981H733.833V387.788H736.233V400.593H733.833V413.4H736.233V426.206H733.833V439.012H736.233V451.818H733.833V464.624H736.233V477.43H733.833V490.236H736.233V503.043H733.833V515.848H736.233V528.655H733.833V541.461H736.233V554.266H733.833V567.073H736.233V579.879H733.833V592.685H736.233V605.491H733.833V618.297H736.233V631.103H733.833V643.91H736.233V656.715H733.833V669.521H736.233V682.328H733.833V695.133H736.233V701.537C736.233 704.236 735.881 706.888 735.208 709.435L732.887 708.822L732.885 708.821C731.627 713.582 729.153 717.951 725.704 721.5L725.705 721.501L727.425 723.172C725.594 725.057 723.511 726.727 721.206 728.129L715.836 731.393L714.589 729.342L703.851 735.871L703.852 735.872L705.099 737.922L694.361 744.452L693.114 742.401L693.113 742.4L682.375 748.929L683.624 750.98L672.885 757.509L671.638 755.459L660.9 761.987L660.901 761.988L662.148 764.039L651.41 770.568L650.163 768.517L650.162 768.516L639.424 775.046L640.672 777.097L629.934 783.626L628.687 781.575L617.949 788.103L617.95 788.104L619.197 790.155L608.458 796.684L607.211 794.633L607.21 794.632L596.473 801.162L596.474 801.163L597.721 803.214L586.983 809.742L585.736 807.691L574.998 814.219L574.999 814.22L576.246 816.271L570.876 819.536C568.421 821.029 565.875 822.146 563.293 822.912L562.611 820.611L562.61 820.61C557.501 822.126 552.267 822.143 547.394 820.934V820.938L546.817 823.267C541.404 821.925 536.404 819.183 532.383 815.35L534.039 813.613L534.04 813.611C530.393 810.135 527.622 805.693 526.228 800.559L523.913 801.189C523.206 798.586 522.827 795.826 522.827 792.944V786.646H525.226V774.051H522.827V761.457H525.226V748.862H522.827V736.267H525.226V723.672H522.827V711.077H525.226V698.482H522.827V685.887H525.226V673.293H522.827V660.698H525.226V648.103H522.827V635.508H525.226V622.913H522.827V610.318H525.226V597.723H522.827V585.129H525.226V572.534H522.827V559.939H525.226V547.344H522.827V534.75H525.226V522.154H522.827V509.559H525.226V496.964H522.827V484.37H525.226V471.775H522.827V459.18H525.226V446.586H522.827V433.99H525.226V421.395H522.827V408.8H525.226V396.206H522.827V383.611H525.226V371.016H522.827V358.422H525.226V345.826H522.827V343.715L520.886 344.852L519.673 342.781L508.568 349.285L509.781 351.356L498.675 357.86L497.462 355.789L486.356 362.293L487.57 364.364L476.464 370.869L475.25 368.797L464.145 375.3L464.146 375.301L465.359 377.373L454.253 383.877L453.041 381.805L441.934 388.309L443.148 390.38L437.594 393.632C435.586 394.809 433.77 396.222 432.175 397.823L430.475 396.13C426.924 399.693 424.371 404.115 423.071 408.949L425.388 409.573C424.801 411.756 424.493 414.032 424.493 416.35V422.669H422.093V435.305H424.493V447.942H422.093V460.579H424.493V473.214H422.093V485.851H424.493V498.488H422.093V511.125H424.493V523.761H422.093V536.398H424.493V549.034H422.093V561.671H424.493V574.307H422.093V586.944H424.493V593.262L424.489 593.802C424.444 596.498 424.068 599.083 423.402 601.53L421.086 600.899L421.084 600.898C419.683 606.046 416.897 610.497 413.233 613.974L413.235 613.976L414.887 615.716C410.847 619.551 405.824 622.287 400.391 623.613L399.822 621.282L399.821 621.277C394.93 622.471 389.681 622.434 384.565 620.887L383.871 623.185C381.447 622.453 379.058 621.41 376.747 620.037L376.286 619.757L371.083 616.553L372.342 614.509L361.938 608.1L360.68 610.144L350.277 603.735L351.536 601.691H351.535L341.132 595.282L339.874 597.325L329.47 590.916L330.729 588.873V588.872L320.326 582.463V582.464L319.067 584.506L308.663 578.097L309.921 576.053L299.517 569.644L298.259 571.688L287.856 565.279L289.115 563.235H289.114L278.71 556.826Z" stroke="#E4E4E7" stroke-width="4.8" stroke-dasharray="12.8 12.8"/>
</svg>
