<svg width="335" height="103" viewBox="0 0 335 103" fill="none" xmlns="http://www.w3.org/2000/svg">
<path d="M0 25.5077V56.068C0 57.5124 0.742466 58.8547 1.96398 59.6186L22.7991 72.6479C25.5756 74.3842 29.1719 72.3805 29.1719 69.0973V43.4089C29.1719 41.931 29.9489 40.5627 31.2159 39.8095L43.9251 32.2541V98.0919C43.9251 101.364 47.4998 103.37 50.2771 101.655L71.7817 88.3827C73.0151 87.6215 73.7665 86.2724 73.7665 84.8192V21.5962C73.7665 18.3399 70.2231 16.3321 67.445 18.0141L43.9251 32.2541V4.18989C43.9251 0.942447 40.3989 -1.06671 37.6205 0.597616L2.03206 21.9154C0.77182 22.6703 0 24.0347 0 25.5077Z" fill="#18181B"/>
<path d="M152.607 56.1408C152.607 47.4744 149.061 43.4746 141.969 43.4746C133.848 43.4746 128.128 48.9188 128.128 61.1406V89.1396H113.487V11.3647H128.128V39.8081C131.674 34.0305 137.508 31.1417 145.515 31.1417C159.127 31.1417 167.134 39.4747 167.134 53.4742V89.1396H152.607V56.1408Z" fill="#18181B"/>
<path d="M203.372 90.9173C185.185 90.9173 173.632 79.14 173.632 61.0295C173.632 43.1413 185.07 31.1417 203.372 31.1417C223.161 31.1417 233.914 45.1412 230.939 64.8071H188.273C189.074 74.1401 194.565 79.4733 203.372 79.4733C210.579 79.4733 214.925 75.8067 216.069 72.1402H230.596C228.309 83.0287 218.243 90.9173 203.372 90.9173ZM188.616 55.1408H216.756C216.641 47.4744 211.608 42.2524 203.029 42.2524C195.365 42.2524 189.989 46.6967 188.616 55.1408Z" fill="#18181B"/>
<path d="M238.924 47.1411C238.924 37.9192 244.072 32.9194 253.909 32.9194H272.668V44.919H253.566V89.1396H238.924V47.1411Z" fill="#18181B"/>
<path d="M304.703 90.9173C286.172 90.9173 274.39 79.0288 274.39 61.0295C274.39 43.0302 286.172 31.1417 304.703 31.1417C323.005 31.1417 334.786 43.0302 334.786 61.0295C334.786 79.0288 323.005 90.9173 304.703 90.9173ZM304.703 78.8066C313.854 78.8066 319.916 71.8069 319.916 61.0295C319.916 50.2521 313.854 43.1413 304.703 43.1413C295.437 43.1413 289.375 50.2521 289.375 61.0295C289.375 71.8069 295.437 78.8066 304.703 78.8066Z" fill="#18181B"/>
</svg>
